<svg xmlns="http://www.w3.org/2000/svg" width="302.24" height="50" viewBox="0 0 319.94485 62.162109"><g transform="translate(-60.394 24.291)" font-weight="400"><path style="line-height:normal;font-variant-ligatures:normal;font-variant-position:normal;font-variant-caps:normal;font-variant-numeric:normal;font-variant-alternates:normal;font-feature-settings:normal;text-indent:0;text-align:start;text-decoration-line:none;text-decoration-style:solid;text-decoration-color:#000;text-transform:none;text-orientation:mixed;shape-padding:0;isolation:auto;mix-blend-mode:normal" d="M145.113-24.291L96.095 22.748 69.285-6.414 61.494.75 95.62 37.87l56.82-54.524z" color="#000" fill="#67bc65" fill-rule="evenodd"/><path style="line-height:normal;font-variant-ligatures:normal;font-variant-position:normal;font-variant-caps:normal;font-variant-numeric:normal;font-variant-alternates:normal;font-feature-settings:normal;text-indent:0;text-align:start;text-decoration-line:none;text-decoration-style:solid;text-decoration-color:#000;text-transform:none;text-orientation:mixed;shape-padding:0;isolation:auto;mix-blend-mode:normal" d="M77.2 17.834l13.558-.887-12.48-13.575-7.59 7.38zM103.746 30.073l-12.519 3.019 4.394 4.779zM129.1 5.743l8.757-8.403.415-2.866-12.42-.281-7.198 6.908zM114.338 5.243l-11.364 10.904 16.404-1.074 3.207-3.077z" color="#000" fill-opacity=".196" fill-rule="evenodd"/><path style="line-height:normal;font-variant-ligatures:normal;font-variant-position:normal;font-variant-caps:normal;font-variant-numeric:normal;font-variant-alternates:normal;font-feature-settings:normal;text-indent:0;text-align:start;text-decoration-line:none;text-decoration-style:solid;text-decoration-color:#000;text-transform:none;text-orientation:mixed;shape-padding:0;isolation:auto;mix-blend-mode:normal" d="M114.338 5.243l8.247 6.753 6.515-6.253-10.446-4.642z" color="#000" fill-opacity=".353" fill-rule="evenodd"/><g style="line-height:125%;-inkscape-font-specification:Ubuntu" font-size="50.8" font-family="Ubuntu" letter-spacing="5.099" word-spacing="0" fill="#67bc65" stroke-width=".265"><path d="M166.404 26.758V-8.446h21.489v4.216h-16.561V6.235h14.732v4.115h-14.732v12.192h17.83v4.216zM228.923-8.446q-1.93 5.588-3.709 10.363-1.727 4.725-3.403 8.992-1.677 4.267-3.353 8.179-1.626 3.86-3.353 7.67h-4.623q-1.727-3.81-3.403-7.67-1.626-3.912-3.353-8.18-1.677-4.266-3.455-8.99-1.778-4.776-3.657-10.364h5.435q2.744 8.026 5.385 15.443 2.642 7.417 5.436 13.92 2.794-6.452 5.435-13.869 2.642-7.468 5.334-15.494zM238.91 26.758V-8.446H260.4v4.216h-16.56V6.235h14.731v4.115h-14.732v12.192h17.83v4.216zM290.202 12.026q.813 1.016 2.032 2.693 1.27 1.625 2.59 3.657 1.322 1.982 2.592 4.166 1.32 2.184 2.235 4.216h-5.385q-1.016-1.93-2.235-3.911-1.168-1.981-2.388-3.76-1.219-1.828-2.438-3.403-1.168-1.575-2.134-2.743-.66.05-1.371.05h-5.792v13.767h-4.927V-7.938q2.083-.508 4.623-.66 2.59-.204 4.724-.204 7.417 0 11.278 2.794 3.911 2.794 3.911 8.332 0 3.505-1.88 5.994-1.828 2.49-5.435 3.708zm-7.467-16.51q-3.15 0-4.826.153V8.928h3.505q2.54 0 4.572-.254t3.403-.966q1.423-.71 2.185-1.98.762-1.322.762-3.455 0-1.981-.762-3.302t-2.083-2.083q-1.27-.762-3.048-1.067-1.727-.305-3.708-.305zM338.933 9.13q0 4.573-1.422 7.976-1.423 3.353-4.014 5.588-2.59 2.185-6.197 3.302-3.607 1.067-7.925 1.067-2.134 0-4.724-.203-2.54-.152-4.623-.66V-7.938q2.083-.508 4.623-.66 2.59-.204 4.724-.204 4.318 0 7.925 1.118 3.607 1.067 6.197 3.302 2.591 2.184 4.014 5.588 1.422 3.353 1.422 7.925zm-19.152 13.615q7.01 0 10.465-3.556 3.455-3.607 3.455-10.058 0-6.452-3.455-10.008-3.454-3.607-10.465-3.607-2.082 0-3.25.051-1.118.051-1.576.102v26.924q.458.05 1.575.101 1.169.051 3.251.051zM346.709 9.13q0-4.52 1.32-7.975 1.372-3.454 3.658-5.74 2.337-2.337 5.385-3.505 3.099-1.169 6.553-1.169 3.404 0 6.401 1.169 3.048 1.168 5.334 3.505 2.286 2.286 3.607 5.74 1.371 3.455 1.371 7.976t-1.371 7.975q-1.321 3.455-3.607 5.792-2.286 2.286-5.334 3.454-2.997 1.168-6.4 1.168-3.455 0-6.554-1.168-3.048-1.168-5.385-3.454-2.286-2.337-3.657-5.792-1.321-3.454-1.321-7.975zm5.181 0q0 3.201.813 5.843.813 2.59 2.286 4.42 1.524 1.828 3.658 2.844 2.184.965 4.877.965 2.692 0 4.826-.965 2.133-1.016 3.606-2.845 1.524-1.828 2.337-4.42.813-2.64.813-5.841 0-3.2-.813-5.791-.813-2.642-2.337-4.47-1.473-1.83-3.606-2.795-2.134-1.016-4.826-1.016-2.693 0-4.877 1.016-2.134.965-3.658 2.794-1.473 1.829-2.286 4.47-.813 2.591-.813 5.792z" style="-inkscape-font-specification:Ubuntu"/></g></g></svg>